<svg xmlns="http://www.w3.org/2000/svg" viewBox="0 0 13.9 3.93"><defs><style>.cls-1{fill:#231f20;stroke:#231f20;stroke-miterlimit:10;stroke-width:0.25px;}</style></defs><title>Asset 3</title><g id="Layer_2" data-name="Layer 2"><g id="Layer_1-2" data-name="Layer 1"><path class="cls-1" d="M2.87.19h.41V3.74H2.95L.54.83V3.74H.13V.19H.52L2.87,3Z"/><path class="cls-1" d="M4.8.19V3.74H4.38V.19Z"/><path class="cls-1" d="M8.79,3.44a1.91,1.91,0,0,1-.34.2,2,2,0,0,1-.39.13,2.19,2.19,0,0,1-.46,0,1.92,1.92,0,0,1-.75-.14,1.84,1.84,0,0,1-.59-.39,1.77,1.77,0,0,1-.39-.58A1.84,1.84,0,0,1,5.73,2,1.82,1.82,0,0,1,6.86.27,1.94,1.94,0,0,1,7.61.13a2.38,2.38,0,0,1,.46,0,2,2,0,0,1,.38.11,1.77,1.77,0,0,1,.33.18,2.83,2.83,0,0,1,.29.23L8.78,1A2.36,2.36,0,0,0,8.27.63,1.59,1.59,0,0,0,7,.61a1.4,1.4,0,0,0-.76.77A1.5,1.5,0,0,0,6.16,2a1.52,1.52,0,0,0,.11.58,1.41,1.41,0,0,0,.3.47,1.43,1.43,0,0,0,1,.43,1.5,1.5,0,0,0,.66-.13,2.3,2.3,0,0,0,.54-.38l.28.26A2.66,2.66,0,0,1,8.79,3.44Z"/><path class="cls-1" d="M12.53.55H10.25V1.77h2v.37h-2V3.38h2.3v.37H9.83V.19h2.7Z"/><path class="cls-1" d="M13.28,3.74V3.21h.49v.53Z"/></g></g></svg>